<mxfile host="Electron" modified="2025-08-04T23:01:19.179Z" agent="Mozilla/5.0 (Macintosh; Intel Mac OS X 10_15_7) AppleWebKit/537.36 (KHTML, like Gecko) draw.io/24.4.8 Chrome/124.0.6367.207 Electron/30.0.6 Safari/537.36" etag="Wofc3GsOQiBS3NmPSpzb" version="24.4.8" type="device">
  <diagram name="Страница — 1" id="orE24erLFWu6xPgHbu1M">
    <mxGraphModel dx="1026" dy="743" grid="1" gridSize="10" guides="1" tooltips="1" connect="1" arrows="1" fold="1" page="1" pageScale="1" pageWidth="827" pageHeight="1169" math="0" shadow="0">
      <root>
        <mxCell id="0" />
        <mxCell id="1" parent="0" />
        <object placeholders="1" c4Name="Service" c4Type="" c4Description="" label="%c4Name%&#xa;[%c4Type%]&#xa;&#xa;%c4Description%" id="AFOfjfn_5VunGb1Ijbv4-47">
          <mxCell style="rounded=1;whiteSpace=wrap;labelBackgroundColor=none;fillColor=#d5e8d4;align=center;arcSize=10;strokeColor=#82b366;metaEdit=1;resizable=0;points=[[0.25,0,0],[0.5,0,0],[0.75,0,0],[1,0.25,0],[1,0.5,0],[1,0.75,0],[0.75,1,0],[0.5,1,0],[0.25,1,0],[0,0.75,0],[0,0.5,0],[0,0.25,0]];sketch=1;hachureGap=4;jiggle=2;curveFitting=1;fontFamily=Architects Daughter;fontSource=https%3A%2F%2Ffonts.googleapis.com%2Fcss%3Ffamily%3DArchitects%2BDaughter;strokeWidth=2;fontColor=none;noLabel=1;" parent="1" vertex="1">
            <mxGeometry x="80" y="40" width="240" height="120" as="geometry" />
          </mxCell>
        </object>
        <object placeholders="1" c4Name="Container name" c4Type="Container" c4Technology="e.g. Oracle Database 12" c4Description="Description of storage type container role/responsibility." label="&lt;font style=&quot;font-size: 16px&quot;&gt;&lt;b&gt;%c4Name%&lt;/b&gt;&lt;/font&gt;&lt;div&gt;[%c4Type%:&amp;nbsp;%c4Technology%]&lt;/div&gt;&lt;br&gt;&lt;div&gt;&lt;font style=&quot;font-size: 11px&quot;&gt;&lt;font&gt;%c4Description%&lt;/font&gt;&lt;/font&gt;&lt;/div&gt;" id="AFOfjfn_5VunGb1Ijbv4-48">
          <mxCell style="shape=cylinder3;size=15;whiteSpace=wrap;html=1;boundedLbl=1;rounded=1;labelBackgroundColor=none;fillColor=#ffe6cc;fontSize=12;align=center;strokeColor=#d79b00;metaEdit=1;points=[[0.5,0,0],[1,0.25,0],[1,0.5,0],[1,0.75,0],[0.5,1,0],[0,0.75,0],[0,0.5,0],[0,0.25,0]];resizable=0;sketch=1;hachureGap=4;jiggle=2;curveFitting=1;fontFamily=Architects Daughter;fontSource=https%3A%2F%2Ffonts.googleapis.com%2Fcss%3Ffamily%3DArchitects%2BDaughter;strokeWidth=2;verticalAlign=middle;arcSize=10;noLabel=1;" parent="1" vertex="1">
            <mxGeometry x="80" y="200" width="240" height="120" as="geometry" />
          </mxCell>
        </object>
        <object placeholders="1" c4Name="Container name" c4Type="Container" c4Technology="e.g. Apache Kafka, etc." c4Description="Description of message bus type container role/responsibility." label="&lt;font style=&quot;font-size: 16px&quot;&gt;&lt;b&gt;%c4Name%&lt;/b&gt;&lt;/font&gt;&lt;div&gt;[%c4Type%:&amp;nbsp;%c4Technology%]&lt;/div&gt;&lt;br&gt;&lt;div&gt;&lt;font style=&quot;font-size: 11px&quot;&gt;&lt;font&gt;%c4Description%&lt;/font&gt;&lt;/font&gt;&lt;/div&gt;" id="AFOfjfn_5VunGb1Ijbv4-49">
          <mxCell style="shape=cylinder3;size=15;direction=south;whiteSpace=wrap;html=1;boundedLbl=1;rounded=1;labelBackgroundColor=none;fillColor=#dae8fc;fontSize=12;align=center;strokeColor=#6c8ebf;metaEdit=1;points=[[0.5,0,0],[1,0.25,0],[1,0.5,0],[1,0.75,0],[0.5,1,0],[0,0.75,0],[0,0.5,0],[0,0.25,0]];resizable=0;sketch=1;hachureGap=4;jiggle=2;curveFitting=1;fontFamily=Architects Daughter;fontSource=https%3A%2F%2Ffonts.googleapis.com%2Fcss%3Ffamily%3DArchitects%2BDaughter;strokeWidth=2;verticalAlign=middle;arcSize=10;noLabel=1;" parent="1" vertex="1">
            <mxGeometry x="360" y="40" width="240" height="120" as="geometry" />
          </mxCell>
        </object>
        <object placeholders="1" c4Name="System name" c4Type="Software System" c4Description="Description of software system." label="%c4Name%&#xa;[%c4Type%]&#xa;&#xa;%c4Description%" id="AFOfjfn_5VunGb1Ijbv4-50">
          <mxCell style="rounded=1;whiteSpace=wrap;labelBackgroundColor=none;fillColor=#e1d5e7;align=center;arcSize=10;strokeColor=#9673a6;metaEdit=1;resizable=0;points=[[0.25,0,0],[0.5,0,0],[0.75,0,0],[1,0.25,0],[1,0.5,0],[1,0.75,0],[0.75,1,0],[0.5,1,0],[0.25,1,0],[0,0.75,0],[0,0.5,0],[0,0.25,0]];sketch=1;hachureGap=4;jiggle=2;curveFitting=1;fontFamily=Architects Daughter;fontSource=https%3A%2F%2Ffonts.googleapis.com%2Fcss%3Ffamily%3DArchitects%2BDaughter;noLabel=1;strokeWidth=2;" parent="1" vertex="1">
            <mxGeometry x="360" y="200" width="240" height="120" as="geometry" />
          </mxCell>
        </object>
        <object placeholders="1" c4Type="Relationship" id="AFOfjfn_5VunGb1Ijbv4-54">
          <mxCell style="endArrow=blockThin;html=1;fontSize=10;fontColor=#404040;strokeWidth=2;endFill=1;strokeColor=#000000;elbow=vertical;metaEdit=1;endSize=14;startSize=14;jumpStyle=arc;jumpSize=16;rounded=0;edgeStyle=orthogonalEdgeStyle;sketch=1;hachureGap=4;jiggle=2;curveFitting=1;fontFamily=Architects Daughter;fontSource=https%3A%2F%2Ffonts.googleapis.com%2Fcss%3Ffamily%3DArchitects%2BDaughter;exitX=0;exitY=0.5;exitDx=0;exitDy=0;exitPerimeter=0;entryX=0;entryY=0.5;entryDx=0;entryDy=0;entryPerimeter=0;curved=1;" parent="1" source="AFOfjfn_5VunGb1Ijbv4-47" target="AFOfjfn_5VunGb1Ijbv4-48" edge="1">
            <mxGeometry width="240" relative="1" as="geometry">
              <mxPoint x="30" y="480" as="sourcePoint" />
              <mxPoint x="10" y="280" as="targetPoint" />
              <Array as="points">
                <mxPoint x="40" y="100" />
                <mxPoint x="40" y="260" />
              </Array>
            </mxGeometry>
          </mxCell>
        </object>
        <object placeholders="1" c4Type="Relationship" id="AFOfjfn_5VunGb1Ijbv4-55">
          <mxCell style="endArrow=blockThin;html=1;fontSize=10;fontColor=#404040;strokeWidth=2;endFill=1;strokeColor=#000000;elbow=vertical;metaEdit=1;endSize=14;startSize=14;jumpStyle=arc;jumpSize=16;rounded=0;edgeStyle=orthogonalEdgeStyle;sketch=1;hachureGap=4;jiggle=2;curveFitting=1;fontFamily=Architects Daughter;fontSource=https%3A%2F%2Ffonts.googleapis.com%2Fcss%3Ffamily%3DArchitects%2BDaughter;exitX=0.5;exitY=1;exitDx=0;exitDy=0;exitPerimeter=0;entryX=0.5;entryY=1;entryDx=0;entryDy=0;entryPerimeter=0;curved=1;startArrow=blockThin;startFill=1;" parent="1" source="AFOfjfn_5VunGb1Ijbv4-50" target="AFOfjfn_5VunGb1Ijbv4-48" edge="1">
            <mxGeometry width="240" relative="1" as="geometry">
              <mxPoint x="260" y="470" as="sourcePoint" />
              <mxPoint x="500" y="470" as="targetPoint" />
              <Array as="points">
                <mxPoint x="480" y="360" />
                <mxPoint x="200" y="360" />
              </Array>
            </mxGeometry>
          </mxCell>
        </object>
        <object placeholders="1" c4Type="Relationship" id="AFOfjfn_5VunGb1Ijbv4-56">
          <mxCell style="endArrow=blockThin;html=1;fontSize=10;fontColor=#404040;strokeWidth=2;endFill=1;strokeColor=#000000;elbow=vertical;metaEdit=1;endSize=14;startSize=14;jumpStyle=arc;jumpSize=16;rounded=0;edgeStyle=orthogonalEdgeStyle;sketch=1;hachureGap=4;jiggle=2;curveFitting=1;fontFamily=Architects Daughter;fontSource=https%3A%2F%2Ffonts.googleapis.com%2Fcss%3Ffamily%3DArchitects%2BDaughter;exitX=1;exitY=0.5;exitDx=0;exitDy=0;exitPerimeter=0;entryX=0.5;entryY=0;entryDx=0;entryDy=0;entryPerimeter=0;curved=1;" parent="1" source="AFOfjfn_5VunGb1Ijbv4-50" target="AFOfjfn_5VunGb1Ijbv4-49" edge="1">
            <mxGeometry width="240" relative="1" as="geometry">
              <mxPoint x="630" y="450" as="sourcePoint" />
              <mxPoint x="660" y="90" as="targetPoint" />
              <Array as="points">
                <mxPoint x="640" y="260" />
                <mxPoint x="640" y="100" />
              </Array>
            </mxGeometry>
          </mxCell>
        </object>
        <mxCell id="AFOfjfn_5VunGb1Ijbv4-57" value="&lt;font style=&quot;font-size: 26px;&quot;&gt;Service&lt;/font&gt;" style="text;html=1;align=center;verticalAlign=middle;whiteSpace=wrap;rounded=0;fontFamily=Architects Daughter;fontSource=https%3A%2F%2Ffonts.googleapis.com%2Fcss%3Ffamily%3DArchitects%2BDaughter;fillColor=none;strokeColor=none;fontColor=#82B366;labelBackgroundColor=none;labelBorderColor=none;textShadow=0;" parent="1" vertex="1">
          <mxGeometry x="80" y="40" width="240" height="120" as="geometry" />
        </mxCell>
        <mxCell id="AFOfjfn_5VunGb1Ijbv4-58" value="&lt;font color=&quot;#d79b00&quot; style=&quot;font-size: 26px;&quot;&gt;Database&lt;/font&gt;" style="text;html=1;align=center;verticalAlign=middle;whiteSpace=wrap;rounded=0;fontFamily=Architects Daughter;fontSource=https%3A%2F%2Ffonts.googleapis.com%2Fcss%3Ffamily%3DArchitects%2BDaughter;fillColor=none;strokeColor=none;fontColor=#82B366;" parent="1" vertex="1">
          <mxGeometry x="80" y="210" width="240" height="120" as="geometry" />
        </mxCell>
        <mxCell id="AFOfjfn_5VunGb1Ijbv4-60" value="&lt;font style=&quot;font-size: 26px;&quot;&gt;Relay&lt;/font&gt;" style="text;html=1;align=center;verticalAlign=middle;whiteSpace=wrap;rounded=0;fontFamily=Architects Daughter;fontSource=https%3A%2F%2Ffonts.googleapis.com%2Fcss%3Ffamily%3DArchitects%2BDaughter;fillColor=none;strokeColor=none;fontColor=#9673A6;" parent="1" vertex="1">
          <mxGeometry x="360" y="200" width="240" height="120" as="geometry" />
        </mxCell>
        <mxCell id="AFOfjfn_5VunGb1Ijbv4-62" value="&lt;font color=&quot;#6c8ebf&quot;&gt;&lt;span style=&quot;font-size: 26px;&quot;&gt;Broker&lt;/span&gt;&lt;/font&gt;" style="text;html=1;align=center;verticalAlign=middle;whiteSpace=wrap;rounded=0;fontFamily=Architects Daughter;fontSource=https%3A%2F%2Ffonts.googleapis.com%2Fcss%3Ffamily%3DArchitects%2BDaughter;fillColor=none;strokeColor=none;fontColor=#9673A6;" parent="1" vertex="1">
          <mxGeometry x="360" y="40" width="240" height="120" as="geometry" />
        </mxCell>
      </root>
    </mxGraphModel>
  </diagram>
</mxfile>
